<mxfile host="app.diagrams.net" agent="Mozilla/5.0 (Windows NT 10.0; Win64; x64) AppleWebKit/537.36 (KHTML, like Gecko) Chrome/134.0.0.0 Safari/537.36" version="26.1.3">
  <diagram name="페이지-1" id="dbYwwTLPK9VRkQ9CyfIC">
    <mxGraphModel dx="1235" dy="661" grid="1" gridSize="10" guides="1" tooltips="1" connect="1" arrows="1" fold="1" page="1" pageScale="1" pageWidth="1169" pageHeight="827" math="0" shadow="0">
      <root>
        <mxCell id="0" />
        <mxCell id="1" parent="0" />
        <mxCell id="gHEAibws2Qc9uieVFiqg-7" value="" style="rounded=0;whiteSpace=wrap;html=1;fillColor=none;" vertex="1" parent="1">
          <mxGeometry x="895" y="387" width="200" height="230" as="geometry" />
        </mxCell>
        <mxCell id="osRu560qxdnYaD5JFzMs-22" value="" style="rounded=0;whiteSpace=wrap;html=1;fillColor=none;" parent="1" vertex="1">
          <mxGeometry x="55" y="102" width="415" height="288" as="geometry" />
        </mxCell>
        <mxCell id="osRu560qxdnYaD5JFzMs-55" value="" style="rounded=0;whiteSpace=wrap;html=1;fillColor=none;" parent="1" vertex="1">
          <mxGeometry x="55" y="480" width="455" height="190" as="geometry" />
        </mxCell>
        <mxCell id="osRu560qxdnYaD5JFzMs-23" value="" style="rounded=0;whiteSpace=wrap;html=1;fillColor=none;" parent="1" vertex="1">
          <mxGeometry x="850" y="99" width="290" height="181" as="geometry" />
        </mxCell>
        <mxCell id="gHEAibws2Qc9uieVFiqg-23" style="edgeStyle=orthogonalEdgeStyle;rounded=0;orthogonalLoop=1;jettySize=auto;html=1;exitX=0.5;exitY=1;exitDx=0;exitDy=0;entryX=0.5;entryY=0;entryDx=0;entryDy=0;" edge="1" parent="1" source="osRu560qxdnYaD5JFzMs-1" target="gHEAibws2Qc9uieVFiqg-19">
          <mxGeometry relative="1" as="geometry" />
        </mxCell>
        <mxCell id="osRu560qxdnYaD5JFzMs-1" value="주차차량 관리&lt;div&gt;&amp;lt;Client1&amp;gt;&lt;/div&gt;" style="ellipse;whiteSpace=wrap;html=1;fontSize=16;fontStyle=1" parent="1" vertex="1">
          <mxGeometry x="210" y="60" width="120" height="80" as="geometry" />
        </mxCell>
        <mxCell id="osRu560qxdnYaD5JFzMs-27" style="edgeStyle=orthogonalEdgeStyle;rounded=0;orthogonalLoop=1;jettySize=auto;html=1;exitX=0.5;exitY=1;exitDx=0;exitDy=0;entryX=0.5;entryY=0;entryDx=0;entryDy=0;" parent="1" source="osRu560qxdnYaD5JFzMs-3" target="osRu560qxdnYaD5JFzMs-24" edge="1">
          <mxGeometry relative="1" as="geometry" />
        </mxCell>
        <mxCell id="osRu560qxdnYaD5JFzMs-3" value="주차 유도&lt;div&gt;&amp;lt;Client2&amp;gt;&lt;/div&gt;" style="ellipse;whiteSpace=wrap;html=1;fontSize=16;fontStyle=1" parent="1" vertex="1">
          <mxGeometry x="940" y="57" width="120" height="80" as="geometry" />
        </mxCell>
        <mxCell id="osRu560qxdnYaD5JFzMs-61" style="edgeStyle=orthogonalEdgeStyle;rounded=0;orthogonalLoop=1;jettySize=auto;html=1;exitX=0.5;exitY=1;exitDx=0;exitDy=0;entryX=0.5;entryY=0;entryDx=0;entryDy=0;" parent="1" source="osRu560qxdnYaD5JFzMs-4" target="osRu560qxdnYaD5JFzMs-60" edge="1">
          <mxGeometry relative="1" as="geometry" />
        </mxCell>
        <mxCell id="osRu560qxdnYaD5JFzMs-72" style="edgeStyle=orthogonalEdgeStyle;rounded=0;orthogonalLoop=1;jettySize=auto;html=1;exitX=0.5;exitY=1;exitDx=0;exitDy=0;entryX=0.5;entryY=0;entryDx=0;entryDy=0;" parent="1" source="osRu560qxdnYaD5JFzMs-4" target="osRu560qxdnYaD5JFzMs-56" edge="1">
          <mxGeometry relative="1" as="geometry" />
        </mxCell>
        <mxCell id="gHEAibws2Qc9uieVFiqg-2" style="edgeStyle=orthogonalEdgeStyle;rounded=0;orthogonalLoop=1;jettySize=auto;html=1;exitX=0.5;exitY=1;exitDx=0;exitDy=0;entryX=0.5;entryY=0;entryDx=0;entryDy=0;" edge="1" parent="1" source="osRu560qxdnYaD5JFzMs-4" target="gHEAibws2Qc9uieVFiqg-1">
          <mxGeometry relative="1" as="geometry" />
        </mxCell>
        <mxCell id="osRu560qxdnYaD5JFzMs-4" value="&lt;div&gt;사전 정산/&lt;/div&gt;정기차량 관리&lt;div&gt;&amp;lt;Client3&amp;gt;&lt;/div&gt;" style="ellipse;whiteSpace=wrap;html=1;fontSize=16;fontStyle=1" parent="1" vertex="1">
          <mxGeometry x="150" y="442" width="120" height="80" as="geometry" />
        </mxCell>
        <mxCell id="osRu560qxdnYaD5JFzMs-24" value="빈자리 LED&lt;div&gt;점등&lt;/div&gt;" style="rounded=0;whiteSpace=wrap;html=1;fontSize=16;fontStyle=1" parent="1" vertex="1">
          <mxGeometry x="940" y="179" width="120" height="60" as="geometry" />
        </mxCell>
        <mxCell id="osRu560qxdnYaD5JFzMs-37" value="주차 현황" style="rounded=0;whiteSpace=wrap;html=1;fontSize=16;fontStyle=1" parent="1" vertex="1">
          <mxGeometry x="202.5" y="180" width="120" height="60" as="geometry" />
        </mxCell>
        <mxCell id="osRu560qxdnYaD5JFzMs-40" value="주차장&lt;div&gt;CCTV 확인&lt;/div&gt;" style="rounded=0;whiteSpace=wrap;html=1;fontSize=16;fontStyle=1" parent="1" vertex="1">
          <mxGeometry x="70" y="180" width="120" height="60" as="geometry" />
        </mxCell>
        <mxCell id="osRu560qxdnYaD5JFzMs-53" style="edgeStyle=orthogonalEdgeStyle;rounded=0;orthogonalLoop=1;jettySize=auto;html=1;exitX=1;exitY=0;exitDx=0;exitDy=152.5;exitPerimeter=0;entryX=0;entryY=0.5;entryDx=0;entryDy=0;strokeWidth=4;strokeColor=#7EA6E0;" parent="1" source="osRu560qxdnYaD5JFzMs-43" target="osRu560qxdnYaD5JFzMs-24" edge="1">
          <mxGeometry relative="1" as="geometry" />
        </mxCell>
        <mxCell id="osRu560qxdnYaD5JFzMs-54" value="빈자리 정보&lt;div&gt;전송&lt;/div&gt;" style="edgeLabel;html=1;align=center;verticalAlign=middle;resizable=0;points=[];fontSize=14;fontStyle=1" parent="osRu560qxdnYaD5JFzMs-53" vertex="1" connectable="0">
          <mxGeometry x="-0.4472" y="-4" relative="1" as="geometry">
            <mxPoint x="28" y="-7" as="offset" />
          </mxGeometry>
        </mxCell>
        <mxCell id="gHEAibws2Qc9uieVFiqg-16" style="edgeStyle=orthogonalEdgeStyle;rounded=0;orthogonalLoop=1;jettySize=auto;html=1;exitX=1;exitY=0;exitDx=0;exitDy=450;exitPerimeter=0;entryX=0;entryY=0.5;entryDx=0;entryDy=0;strokeWidth=4;strokeColor=#97D077;" edge="1" parent="1" source="osRu560qxdnYaD5JFzMs-43" target="gHEAibws2Qc9uieVFiqg-15">
          <mxGeometry relative="1" as="geometry" />
        </mxCell>
        <mxCell id="gHEAibws2Qc9uieVFiqg-17" value="입차 일시 전송" style="edgeLabel;html=1;align=center;verticalAlign=middle;resizable=0;points=[];fontSize=14;fontStyle=1" vertex="1" connectable="0" parent="gHEAibws2Qc9uieVFiqg-16">
          <mxGeometry x="-0.0729" y="-1" relative="1" as="geometry">
            <mxPoint x="-7" y="9" as="offset" />
          </mxGeometry>
        </mxCell>
        <mxCell id="osRu560qxdnYaD5JFzMs-43" value="서버/DB" style="shape=cylinder3;whiteSpace=wrap;html=1;boundedLbl=1;backgroundOutline=1;size=15;fontSize=16;fontStyle=1" parent="1" vertex="1">
          <mxGeometry x="641" y="60" width="120" height="610" as="geometry" />
        </mxCell>
        <mxCell id="osRu560qxdnYaD5JFzMs-56" value="기간 연장" style="rounded=0;whiteSpace=wrap;html=1;fontSize=16;fontStyle=1" parent="1" vertex="1">
          <mxGeometry x="230" y="565.94" width="120" height="60" as="geometry" />
        </mxCell>
        <mxCell id="osRu560qxdnYaD5JFzMs-58" style="edgeStyle=orthogonalEdgeStyle;rounded=0;orthogonalLoop=1;jettySize=auto;html=1;exitX=1;exitY=0;exitDx=0;exitDy=0;entryX=-0.01;entryY=0.137;entryDx=0;entryDy=0;entryPerimeter=0;strokeWidth=4;strokeColor=#7EA6E0;" parent="1" source="osRu560qxdnYaD5JFzMs-1" target="osRu560qxdnYaD5JFzMs-43" edge="1">
          <mxGeometry relative="1" as="geometry">
            <Array as="points">
              <mxPoint x="500" y="72" />
              <mxPoint x="500" y="144" />
            </Array>
          </mxGeometry>
        </mxCell>
        <mxCell id="osRu560qxdnYaD5JFzMs-59" value="CCTV&amp;nbsp;&lt;div&gt;이미지 전송&lt;/div&gt;" style="edgeLabel;html=1;align=center;verticalAlign=middle;resizable=0;points=[];fontSize=14;fontStyle=1" parent="osRu560qxdnYaD5JFzMs-58" vertex="1" connectable="0">
          <mxGeometry x="-0.2166" y="-1" relative="1" as="geometry">
            <mxPoint x="-55" y="-3" as="offset" />
          </mxGeometry>
        </mxCell>
        <mxCell id="osRu560qxdnYaD5JFzMs-60" value="정기 차량 등록" style="rounded=0;whiteSpace=wrap;html=1;fontSize=16;fontStyle=1" parent="1" vertex="1">
          <mxGeometry x="370" y="565.94" width="120" height="60" as="geometry" />
        </mxCell>
        <mxCell id="osRu560qxdnYaD5JFzMs-62" style="edgeStyle=orthogonalEdgeStyle;rounded=0;orthogonalLoop=1;jettySize=auto;html=1;exitX=1;exitY=0.5;exitDx=0;exitDy=0;entryX=0.029;entryY=0.588;entryDx=0;entryDy=0;entryPerimeter=0;strokeWidth=4;strokeColor=#EA6B66;" parent="1" source="osRu560qxdnYaD5JFzMs-60" target="osRu560qxdnYaD5JFzMs-43" edge="1">
          <mxGeometry relative="1" as="geometry">
            <mxPoint x="801" y="460.00000000000017" as="targetPoint" />
            <Array as="points">
              <mxPoint x="560" y="596" />
              <mxPoint x="560" y="419" />
            </Array>
          </mxGeometry>
        </mxCell>
        <mxCell id="osRu560qxdnYaD5JFzMs-70" style="edgeStyle=orthogonalEdgeStyle;rounded=0;orthogonalLoop=1;jettySize=auto;html=1;exitX=0.5;exitY=1;exitDx=0;exitDy=0;entryX=0.011;entryY=0.467;entryDx=0;entryDy=0;entryPerimeter=0;startArrow=classic;startFill=1;endArrow=none;strokeWidth=4;strokeColor=#7EA6E0;" parent="1" source="osRu560qxdnYaD5JFzMs-37" target="osRu560qxdnYaD5JFzMs-43" edge="1">
          <mxGeometry relative="1" as="geometry" />
        </mxCell>
        <mxCell id="osRu560qxdnYaD5JFzMs-71" value="주차 차량&amp;nbsp;&lt;span style=&quot;background-color: light-dark(#ffffff, var(--ge-dark-color, #121212)); color: light-dark(rgb(0, 0, 0), rgb(255, 255, 255));&quot;&gt;리스트/&lt;/span&gt;&lt;div&gt;&lt;span style=&quot;background-color: light-dark(#ffffff, var(--ge-dark-color, #121212)); color: light-dark(rgb(0, 0, 0), rgb(255, 255, 255));&quot;&gt;빈자리 정보 전송&lt;/span&gt;&lt;/div&gt;" style="edgeLabel;html=1;align=center;verticalAlign=middle;resizable=0;points=[];fontSize=14;fontStyle=1" parent="osRu560qxdnYaD5JFzMs-70" vertex="1" connectable="0">
          <mxGeometry x="0.5225" y="-1" relative="1" as="geometry">
            <mxPoint x="21" y="-2" as="offset" />
          </mxGeometry>
        </mxCell>
        <mxCell id="gHEAibws2Qc9uieVFiqg-1" value="사전 정산" style="rounded=0;whiteSpace=wrap;html=1;fontSize=16;fontStyle=1" vertex="1" parent="1">
          <mxGeometry x="80" y="565.94" width="120" height="60" as="geometry" />
        </mxCell>
        <mxCell id="gHEAibws2Qc9uieVFiqg-3" style="edgeStyle=orthogonalEdgeStyle;rounded=0;orthogonalLoop=1;jettySize=auto;html=1;exitX=0.5;exitY=1;exitDx=0;exitDy=0;entryX=0.028;entryY=0.589;entryDx=0;entryDy=0;entryPerimeter=0;strokeWidth=4;strokeColor=#EA6B66;" edge="1" parent="1" source="gHEAibws2Qc9uieVFiqg-1" target="osRu560qxdnYaD5JFzMs-43">
          <mxGeometry relative="1" as="geometry">
            <Array as="points">
              <mxPoint x="140" y="646" />
              <mxPoint x="560" y="646" />
              <mxPoint x="560" y="419" />
            </Array>
          </mxGeometry>
        </mxCell>
        <mxCell id="gHEAibws2Qc9uieVFiqg-4" style="edgeStyle=orthogonalEdgeStyle;rounded=0;orthogonalLoop=1;jettySize=auto;html=1;exitX=0.5;exitY=1;exitDx=0;exitDy=0;entryX=0.028;entryY=0.589;entryDx=0;entryDy=0;entryPerimeter=0;strokeWidth=4;strokeColor=#EA6B66;" edge="1" parent="1" source="osRu560qxdnYaD5JFzMs-56" target="osRu560qxdnYaD5JFzMs-43">
          <mxGeometry relative="1" as="geometry">
            <Array as="points">
              <mxPoint x="290" y="646" />
              <mxPoint x="560" y="646" />
              <mxPoint x="560" y="419" />
            </Array>
          </mxGeometry>
        </mxCell>
        <mxCell id="gHEAibws2Qc9uieVFiqg-9" style="edgeStyle=orthogonalEdgeStyle;rounded=0;orthogonalLoop=1;jettySize=auto;html=1;exitX=0.5;exitY=1;exitDx=0;exitDy=0;entryX=0.5;entryY=0;entryDx=0;entryDy=0;" edge="1" parent="1" source="gHEAibws2Qc9uieVFiqg-5" target="gHEAibws2Qc9uieVFiqg-8">
          <mxGeometry relative="1" as="geometry" />
        </mxCell>
        <mxCell id="gHEAibws2Qc9uieVFiqg-5" value="출구 정산&lt;div&gt;&amp;lt;Client4&amp;gt;&lt;/div&gt;" style="ellipse;whiteSpace=wrap;html=1;fontSize=16;fontStyle=1" vertex="1" parent="1">
          <mxGeometry x="935" y="347" width="120" height="80" as="geometry" />
        </mxCell>
        <mxCell id="gHEAibws2Qc9uieVFiqg-8" value="출차&amp;nbsp;&lt;div&gt;번호판 촬영&lt;/div&gt;" style="rounded=0;whiteSpace=wrap;html=1;fontSize=16;fontStyle=1" vertex="1" parent="1">
          <mxGeometry x="935" y="462" width="120" height="60" as="geometry" />
        </mxCell>
        <mxCell id="gHEAibws2Qc9uieVFiqg-13" style="edgeStyle=orthogonalEdgeStyle;rounded=0;orthogonalLoop=1;jettySize=auto;html=1;exitX=0;exitY=0.5;exitDx=0;exitDy=0;entryX=1;entryY=0.5;entryDx=0;entryDy=0;entryPerimeter=0;strokeWidth=4;strokeColor=#97D077;" edge="1" parent="1" source="gHEAibws2Qc9uieVFiqg-8" target="osRu560qxdnYaD5JFzMs-43">
          <mxGeometry relative="1" as="geometry" />
        </mxCell>
        <mxCell id="gHEAibws2Qc9uieVFiqg-14" value="번호판 이미지&lt;div&gt;전송&lt;/div&gt;" style="edgeLabel;html=1;align=center;verticalAlign=middle;resizable=0;points=[];fontSize=14;fontStyle=1" vertex="1" connectable="0" parent="gHEAibws2Qc9uieVFiqg-13">
          <mxGeometry x="0.1051" y="-3" relative="1" as="geometry">
            <mxPoint x="-21" y="14" as="offset" />
          </mxGeometry>
        </mxCell>
        <mxCell id="gHEAibws2Qc9uieVFiqg-15" value="출구 정산" style="rounded=0;whiteSpace=wrap;html=1;fontStyle=1;fontSize=16;" vertex="1" parent="1">
          <mxGeometry x="935" y="540" width="120" height="60" as="geometry" />
        </mxCell>
        <mxCell id="gHEAibws2Qc9uieVFiqg-19" value="입차 번호판&lt;div&gt;촬영&lt;/div&gt;" style="rounded=0;whiteSpace=wrap;html=1;fontSize=16;fontStyle=1" vertex="1" parent="1">
          <mxGeometry x="340" y="180" width="120" height="60" as="geometry" />
        </mxCell>
        <mxCell id="gHEAibws2Qc9uieVFiqg-21" style="edgeStyle=orthogonalEdgeStyle;rounded=0;orthogonalLoop=1;jettySize=auto;html=1;exitX=0.5;exitY=1;exitDx=0;exitDy=0;entryX=0.559;entryY=0.008;entryDx=0;entryDy=0;entryPerimeter=0;" edge="1" parent="1" source="osRu560qxdnYaD5JFzMs-1" target="osRu560qxdnYaD5JFzMs-37">
          <mxGeometry relative="1" as="geometry" />
        </mxCell>
        <mxCell id="gHEAibws2Qc9uieVFiqg-22" style="edgeStyle=orthogonalEdgeStyle;rounded=0;orthogonalLoop=1;jettySize=auto;html=1;exitX=0.5;exitY=1;exitDx=0;exitDy=0;entryX=0.536;entryY=0.017;entryDx=0;entryDy=0;entryPerimeter=0;" edge="1" parent="1" source="osRu560qxdnYaD5JFzMs-1" target="osRu560qxdnYaD5JFzMs-40">
          <mxGeometry relative="1" as="geometry" />
        </mxCell>
        <mxCell id="gHEAibws2Qc9uieVFiqg-24" style="edgeStyle=orthogonalEdgeStyle;rounded=0;orthogonalLoop=1;jettySize=auto;html=1;exitX=1;exitY=0.5;exitDx=0;exitDy=0;entryX=0;entryY=0;entryDx=0;entryDy=160;entryPerimeter=0;strokeWidth=4;strokeColor=#97D077;" edge="1" parent="1" source="gHEAibws2Qc9uieVFiqg-19" target="osRu560qxdnYaD5JFzMs-43">
          <mxGeometry relative="1" as="geometry" />
        </mxCell>
        <mxCell id="gHEAibws2Qc9uieVFiqg-25" value="번호판 이미지&lt;div&gt;전송&lt;/div&gt;" style="edgeLabel;html=1;align=center;verticalAlign=middle;resizable=0;points=[];fontSize=14;fontStyle=1" vertex="1" connectable="0" parent="gHEAibws2Qc9uieVFiqg-24">
          <mxGeometry x="-0.0151" y="2" relative="1" as="geometry">
            <mxPoint as="offset" />
          </mxGeometry>
        </mxCell>
      </root>
    </mxGraphModel>
  </diagram>
</mxfile>
